<?xml version="1.0" encoding="UTF-8"?>
<svg id="Capa_1" data-name="Capa 1" xmlns="http://www.w3.org/2000/svg" viewBox="0 0 390.32 123.54">
  <defs>
    <style>
      .cls-1 {
        fill: #1d1d1b;
      }
    </style>
  </defs>
  <g>
    <g>
      <path class="cls-1" d="m.44,76.33l-.44-16.64,1.44-.22c4.66,12.64,14.53,22.41,29.28,22.41,7.65,0,14.75-4.88,14.75-13.98,0-10.87-14.31-15.97-23.18-19.52C10.87,43.61,1.33,39.83,1.33,26.97,1.33,13.21,12.42,4.67,29.84,4.67c8.21,0,15.53,1.78,21.3,4.66l.44,14.42-1.22.44c-4.55-11.42-13.98-17.64-24.74-17.64-8.87,0-15.86,5.21-15.86,13.98,0,9.87,11.2,13.86,20.08,17.41,11.31,4.32,24.74,9.32,24.74,22.63,0,15.2-13.98,23.63-26.73,23.63-11.42,0-21.74-3.66-27.4-7.87Z"/>
      <path class="cls-1" d="m62.67,81.54c3.66-1.22,4.44-4.55,4.44-12.53V19.54c0-7.99-.78-11.32-4.44-12.54v-1.55h23.29c25.29,0,31.06,12.54,31.06,21.52,0,13.87-9.98,25.62-32.72,25.62h-5.43v16.42c0,7.99.78,11.31,4.44,12.53v1.55h-20.63v-1.55Zm21.07-30.73c14.53,0,20.74-8.43,20.74-20.96,0-9.54-4.66-22.63-22.18-22.63-1.11,0-2.66.11-3.44.22v43.37h4.88Z"/>
      <path class="cls-1" d="m162.16,18.31v44.04c0,13.53,2.66,17.41,8.43,19.19v1.55h-14.86v-1.55c3.66-1.22,4.44-4.55,4.44-12.53V19.54c0-7.99-1-11.32-5.77-12.54v-1.55h12.53l46.59,58.34V26.19c0-13.53-2.66-17.41-8.43-19.19v-1.55h14.97v1.55c-3.66,1.22-4.44,4.55-4.44,12.54v64.44h-1.44l-52.02-65.67Z"/>
      <path class="cls-1" d="m275.85,81.54c3.66-1.22,4.44-4.55,4.44-12.53V7.45h-3.44c-9.87,0-14.86,2.77-18.97,11.65l-1.33-.22.66-13.42h57.79l.66,13.42-1.33.22c-4.1-8.87-9.09-11.65-18.97-11.65h-3.22v61.56c0,7.99.78,11.31,4.44,12.53v1.55h-20.74v-1.55Z"/>
      <path class="cls-1" d="m325.65,52.92V19.54c0-7.99-.78-11.32-4.44-12.54v-1.55h20.63v1.55c-3.66,1.22-4.44,4.55-4.44,12.54v34.27c0,20.19,9.98,27.73,25.07,27.73,9.32,0,21.41-6.88,21.41-28.4v-26.95c0-13.53-2.66-17.41-8.43-19.19v-1.55h14.86v1.55c-3.66,1.22-4.44,4.55-4.44,12.54v33.39c0,22.29-11.65,31.28-27.84,31.28s-32.39-7.43-32.39-31.28Z"/>
    </g>
    <g>
      <rect class="cls-1" x="227.16" width="24.63" height="2.45"/>
      <path class="cls-1" d="m229.15,81.54c3.66-1.22,4.44-4.55,4.44-12.53V19.54c0-7.99-.78-11.32-4.44-12.54v-1.55h20.63v1.55c-3.66,1.22-4.44,4.55-4.44,12.54v49.47c0,7.99.78,11.31,4.44,12.53v1.55h-20.63v-1.55Z"/>
    </g>
    <g>
      <rect class="cls-1" x="122.67" width="24.63" height="2.45"/>
      <path class="cls-1" d="m124.67,81.54c3.66-1.22,4.44-4.55,4.44-12.53V19.54c0-7.99-.78-11.32-4.44-12.54v-1.55h20.63v1.55c-3.66,1.22-4.44,4.55-4.44,12.54v49.47c0,7.99.78,11.31,4.44,12.53v1.55h-20.63v-1.55Z"/>
    </g>
  </g>
  <g>
    <path class="cls-1" d="m158.48,121.32l.72-.56c.77,1.24,1.84,1.91,3.1,1.91,1.51,0,2.58-.97,2.58-2.36,0-1.21-.79-2.04-2.58-2.7-2.12-.79-3.08-1.91-3.08-3.44,0-1.8,1.3-3.02,3.17-3.02,1.3,0,2.39.59,3.22,1.78l-.72.54c-.68-.97-1.51-1.46-2.5-1.46-1.37,0-2.23.88-2.23,2.11,0,1.15.77,1.96,2.5,2.63,2.16.83,3.15,1.94,3.15,3.51,0,1.91-1.48,3.28-3.53,3.28-1.57,0-2.97-.81-3.8-2.21Z"/>
    <path class="cls-1" d="m173.33,112.17h-4.01v-.86h8.97v.86h-4.02v11.2h-.94v-11.2Z"/>
    <path class="cls-1" d="m183.05,118.55v-7.24h.94v7.15c0,2.52,1.33,4.16,3.38,4.16s3.4-1.64,3.4-4.16v-7.15h.94v7.24c0,2.97-1.75,4.99-4.32,4.99s-4.34-2-4.34-4.99Z"/>
    <path class="cls-1" d="m197.74,111.31h3.76c3.76,0,6.54,2.56,6.54,6.01s-2.77,6.05-6.54,6.05h-3.76v-12.06Zm3.76,11.2c3.21,0,5.55-2.2,5.55-5.19s-2.32-5.15-5.55-5.15h-2.83v10.33h2.83Z"/>
    <path class="cls-1" d="m213.44,111.31h.94v12.06h-.94v-12.06Z"/>
    <path class="cls-1" d="m219.77,117.34c0-3.44,2.7-6.19,6.03-6.19s6.03,2.74,6.03,6.19-2.68,6.19-6.03,6.19-6.03-2.77-6.03-6.19Zm11.07,0c0-2.99-2.21-5.28-5.04-5.28s-5.04,2.29-5.04,5.28,2.21,5.28,5.04,5.28,5.04-2.29,5.04-5.28Z"/>
  </g>
</svg>