<?xml version="1.0" encoding="UTF-8"?>
<svg id="Capa_1" data-name="Capa 1" xmlns="http://www.w3.org/2000/svg" viewBox="0 0 390.32 84.2">
  <defs>
    <style>
      .cls-1 {
        fill: #1d1d1b;
      }
    </style>
  </defs>
  <g>
    <path class="cls-1" d="m.44,76.33l-.44-16.64,1.44-.22c4.66,12.64,14.53,22.41,29.28,22.41,7.65,0,14.75-4.88,14.75-13.98,0-10.87-14.31-15.97-23.18-19.52C10.87,43.61,1.33,39.83,1.33,26.97,1.33,13.21,12.42,4.67,29.84,4.67c8.21,0,15.53,1.78,21.3,4.66l.44,14.42-1.22.44c-4.55-11.42-13.98-17.64-24.74-17.64-8.87,0-15.86,5.21-15.86,13.98,0,9.87,11.2,13.86,20.08,17.41,11.31,4.32,24.74,9.32,24.74,22.63,0,15.2-13.98,23.63-26.73,23.63-11.42,0-21.74-3.66-27.4-7.87Z"/>
    <path class="cls-1" d="m62.67,81.54c3.66-1.22,4.44-4.55,4.44-12.53V19.54c0-7.99-.78-11.32-4.44-12.54v-1.55h23.29c25.29,0,31.06,12.54,31.06,21.52,0,13.87-9.98,25.62-32.72,25.62h-5.43v16.42c0,7.99.78,11.31,4.44,12.53v1.55h-20.63v-1.55Zm21.07-30.73c14.53,0,20.74-8.43,20.74-20.96,0-9.54-4.66-22.63-22.18-22.63-1.11,0-2.66.11-3.44.22v43.37h4.88Z"/>
    <path class="cls-1" d="m162.16,18.31v44.04c0,13.53,2.66,17.41,8.43,19.19v1.55h-14.86v-1.55c3.66-1.22,4.44-4.55,4.44-12.53V19.54c0-7.99-1-11.32-5.77-12.54v-1.55h12.53l46.59,58.34V26.19c0-13.53-2.66-17.41-8.43-19.19v-1.55h14.97v1.55c-3.66,1.22-4.44,4.55-4.44,12.54v64.44h-1.44l-52.02-65.67Z"/>
    <path class="cls-1" d="m275.85,81.54c3.66-1.22,4.44-4.55,4.44-12.53V7.45h-3.44c-9.87,0-14.86,2.77-18.97,11.65l-1.33-.22.66-13.42h57.79l.66,13.42-1.33.22c-4.1-8.87-9.09-11.65-18.97-11.65h-3.22v61.56c0,7.99.78,11.31,4.44,12.53v1.55h-20.74v-1.55Z"/>
    <path class="cls-1" d="m325.65,52.92V19.54c0-7.99-.78-11.32-4.44-12.54v-1.55h20.63v1.55c-3.66,1.22-4.44,4.55-4.44,12.54v34.27c0,20.19,9.98,27.73,25.07,27.73,9.32,0,21.41-6.88,21.41-28.4v-26.95c0-13.53-2.66-17.41-8.43-19.19v-1.55h14.86v1.55c-3.66,1.22-4.44,4.55-4.44,12.54v33.39c0,22.29-11.65,31.28-27.84,31.28s-32.39-7.43-32.39-31.28Z"/>
  </g>
  <g>
    <rect class="cls-1" x="227.16" width="24.63" height="2.45"/>
    <path class="cls-1" d="m229.15,81.54c3.66-1.22,4.44-4.55,4.44-12.53V19.54c0-7.99-.78-11.32-4.44-12.54v-1.55h20.63v1.55c-3.66,1.22-4.44,4.55-4.44,12.54v49.47c0,7.99.78,11.31,4.44,12.53v1.55h-20.63v-1.55Z"/>
  </g>
  <g>
    <rect class="cls-1" x="122.67" width="24.63" height="2.45"/>
    <path class="cls-1" d="m124.67,81.54c3.66-1.22,4.44-4.55,4.44-12.53V19.54c0-7.99-.78-11.32-4.44-12.54v-1.55h20.63v1.55c-3.66,1.22-4.44,4.55-4.44,12.54v49.47c0,7.99.78,11.31,4.44,12.53v1.55h-20.63v-1.55Z"/>
  </g>
</svg>